<svg xmlns="http://www.w3.org/2000/svg" width="1em" height="1em" fill="none" viewBox="0 0 177 30" class="h-[27px] w-[150px] md:h-[30px] md:w-[177px]"><path fill="#102713" d="M0 29.994V0h7.018v12.385H20.84V0h7.017v29.994h-7.017v-12.47H7.018v12.47zM60.625 29.994V0h16.164q3.51.001 6.114.986 2.606.986 4.041 2.785t1.436 4.24v.515q0 2.699-1.597 4.37-1.595 1.672-3.934 2.442v.771q2.126.085 3.296 1.179 1.17 1.093 1.17 2.893v9.813h-7.017v-8.998q.001-1.028-.665-1.671-.665-.643-2.206-.644h-9.784v11.313zm7.018-16.454h8.4q2.5.001 3.91-1.093 1.409-1.093 1.409-2.891v-.428q0-1.8-1.383-2.894t-3.935-1.093h-8.401zM91.984 29.994V0h7.018v29.994zM102.594 29.994V0h13.345l7.392 26.138h.957V0h6.912v29.994h-13.346l-7.391-26.137h-.958v26.137zM148.5 29.994q-3.828 0-6.94-1.339-3.11-1.34-4.944-3.914t-1.835-6.283v-6.922q0-5.562 4.041-8.549T149.775 0c4.606 0 8.107.942 10.607 2.824q3.748 2.822 3.747 7.643v.163h-6.911v-.33a4.9 4.9 0 0 0-.823-2.76q-.826-1.236-2.473-1.957-1.648-.721-4.147-.722-3.722 0-5.85 1.773-2.126 1.77-2.126 4.822v7.088q0 3.01 2.126 4.84 2.125 1.833 5.956 1.832t5.583-1.565q1.755-1.564 1.754-3.955v-.413h-8.827V14.67h15.738v15.328h-6.485v-3.338h-.958q-.372.703-1.197 1.482-.823.784-2.473 1.319-1.648.533-4.518.534zM34.565 30v-4.742h14.38q1.493 0 1.493-1.293v-5.388h-.958q-.428.731-1.331 1.467-.906.732-2.45 1.207-1.545.474-3.942.475-3.09-.001-5.406-1.142-2.318-1.141-3.595-3.167-1.278-2.024-1.28-4.656V0h6.712v12.328q0 2.414 1.466 3.62 1.464 1.207 4.182 1.207 3.087 0 4.793-1.658 1.705-1.659 1.705-4.633V0h6.712v25.172q0 2.2-1.599 3.512Q53.85 30 51.186 30H34.565"></path><path fill="#102713" fill-rule="evenodd" d="M171.776.004a4.946 4.946 0 0 0-3.308 1.465c-.229.23-.364.387-.536.628a4.997 4.997 0 0 0 1.746 7.334 5 5 0 0 0 1.914.557c.169.016.636.016.811 0a5 5 0 0 0 2.827-1.17 7 7 0 0 0 .572-.57 5 5 0 0 0 .025-6.462 7 7 0 0 0-.607-.609 5 5 0 0 0-2.04-1.034 5 5 0 0 0-1.404-.139m-.097.627a4.3 4.3 0 0 0-1.573.422 4.3 4.3 0 0 0-1.201.854 4.369 4.369 0 0 0-.543 5.53 4.373 4.373 0 0 0 7.454-.284c.07-.123.204-.403.257-.538A4.38 4.38 0 0 0 172.296.63a5 5 0 0 0-.617 0m-1.469 4.368.002 2.632.457.002.457.003V5.615l.51.002.51.002.067.127.758 1.455.227.435.491-.003c.456-.002.492-.003.495-.019a3 3 0 0 0-.14-.282l-.34-.63c-.64-1.185-.704-1.306-.692-1.31.037-.012.236-.12.299-.163.195-.132.359-.304.464-.485.122-.21.176-.425.184-.733.013-.495-.116-.866-.401-1.151-.206-.207-.517-.363-.86-.432-.267-.054-.231-.053-1.402-.057l-1.088-.003zm.916-1.012v.88l.541-.001c.306 0 .571-.004.61-.01.401-.057.675-.29.747-.638a1.1 1.1 0 0 0-.072-.67q-.188-.377-.713-.43c-.063-.006-.315-.01-.61-.01h-.503z" clip-rule="evenodd"></path></svg>